<svg width="365" height="365" viewBox="-60.5 0 365 365" fill="none" xmlns="http://www.w3.org/2000/svg" preserveAspectRatio="xMidYMid meet">
<path d="M124.804 311.638C119.699 311.638 114.131 311.217 108.242 310.401C92.2719 308.181 79.1306 296.766 74.7588 281.334C68.2395 258.351 53.6838 237.625 39.591 217.575C20.1363 189.86 0 161.201 0 125.604C0 91.8308 12.1255 60.366 34.1391 36.9746C56.577 13.1369 87.3214 0 120.715 0C189.43 0 243.242 55.175 243.242 125.604C243.242 161.125 225.266 189.962 207.882 217.856C195.525 237.676 182.756 258.159 176.713 280.76C172.418 296.817 158.763 308.5 141.931 310.528C135.733 311.268 129.973 311.651 124.804 311.651V311.638ZM120.715 7.65256C89.4816 7.65256 60.7431 19.9222 39.771 42.1911C19.0947 64.1668 7.71504 93.7822 7.71504 125.604C7.71504 157.426 26.2826 185.23 45.9431 213.2C60.3959 233.773 75.3374 255.034 82.2038 279.268C85.7527 291.78 96.3994 301.026 109.335 302.825C114.864 303.59 120.072 303.985 124.817 303.985C129.561 303.985 135.129 303.628 141.018 302.927C154.699 301.294 165.783 291.818 169.268 278.796C175.594 255.098 188.684 234.117 201.324 213.825C218.914 185.6 235.54 158.944 235.54 125.604C235.54 59.4604 185.11 7.65256 120.728 7.65256H120.715Z" fill="url(#paint0_linear_1713_1969)"/>
<path d="M124.765 327.505C103.513 327.505 87.4691 322.209 86.7951 321.979C84.8391 321.324 84.0462 319.73 85.0241 318.41C86.0021 317.1 88.381 316.568 90.337 317.224C90.4824 317.277 105.456 322.183 124.752 322.183C141.325 322.183 158.188 317.215 158.347 317.17C160.356 316.577 162.695 317.17 163.581 318.516C164.466 319.863 163.58 321.43 161.572 322.023C160.818 322.245 142.99 327.496 124.752 327.496L124.765 327.505Z" fill="url(#paint1_linear_1713_1969)"/>
<path d="M124.765 348.636C103.513 348.636 87.4691 340.693 86.7951 340.348C84.8391 339.365 84.0462 336.973 85.0241 334.994C86.0021 333.028 88.381 332.231 90.337 333.214C90.4824 333.294 105.456 340.653 124.752 340.653C141.325 340.653 158.188 333.201 158.347 333.135C160.356 332.245 162.695 333.135 163.581 335.154C164.466 337.159 163.58 339.524 161.572 340.414C160.818 340.746 142.99 348.623 124.752 348.623L124.765 348.636Z" fill="url(#paint2_linear_1713_1969)"/>
<path d="M124.538 364.477C112.278 364.477 102.984 360.453 102.588 360.285C100.696 359.456 99.9288 357.439 100.875 355.769C101.821 354.11 104.122 353.438 106.014 354.267C106.18 354.346 114.222 357.753 124.538 357.753C133.462 357.753 142.577 354.245 142.666 354.211C144.609 353.46 146.872 354.223 147.729 355.915C148.585 357.607 147.729 359.602 145.786 360.353C145.351 360.521 135.072 364.477 124.538 364.477Z" fill="url(#paint3_linear_1713_1969)"/>
<path d="M98.6794 216.307C97.4515 216.307 96.3131 216.231 95.4177 216.104C91.9642 215.571 85.9909 212.525 83.5863 210.088C81.8979 208.362 78.7385 205.164 76.6153 204.009C76.3083 203.844 75.7071 203.628 75.1188 203.425C73.5966 202.892 71.5117 202.168 69.478 200.62C68.4292 199.82 65.3466 197.041 64.2722 195.226C63.2489 193.487 60.921 189.007 60.2303 186.215C59.5652 183.511 59.0919 179.615 58.9128 176.95L58.8745 176.442C58.7849 174.982 58.5291 171.124 58.3372 169.931C58.2221 169.182 57.7361 168.027 56.1628 166.822C55.5872 166.377 54.2698 165.629 53.2081 165.019C52.0953 164.385 51.0465 163.775 50.2663 163.242C49.1151 162.456 47.1453 160.818 46.0453 159.663C44.9069 158.47 41.5685 154.231 40.8522 151.122C39.1383 143.57 36.1324 124.85 37.7952 115.229C38.729 109.81 42.1313 102.486 45.4185 95.4044C47.8488 90.1626 50.1511 85.2128 51.1872 81.6337C51.3151 81.1894 51.507 80.4152 51.7116 79.5649C52.2872 77.2423 52.7221 75.5289 53.1186 74.5135C54.193 71.8355 57.2372 68.193 59.2326 66.7334C61.1256 65.3373 64.6943 63.8904 67.035 63.5604C68.0838 63.4081 69.3757 63.4843 70.7443 63.5604C71.5117 63.5985 72.7525 63.6746 73.2769 63.6239C73.6222 63.4589 74.2618 63.0401 74.492 62.8243C74.8118 62.4943 75.4769 61.4028 75.9629 60.6032C77.0374 58.839 78.1374 57.0114 79.6339 55.793C81.092 54.6 84.52 53.0642 85.6584 52.6708C88.9968 51.5285 95.6991 50.2213 96.4538 50.069C98.0398 49.7643 102.747 49.0536 105.548 49.4217C107.569 49.6882 110.345 51.0843 111.572 51.9854C113.529 53.4323 115.576 56.5926 116.395 58.3694C116.586 58.7883 117.111 59.9179 118.237 64.8296C118.454 65.7815 118.569 66.7715 118.569 67.7487V201.94C118.569 203.222 118.096 204.466 117.252 205.43C117.098 205.608 116.74 206.128 116.433 206.585C114.693 209.162 111.764 213.464 106.303 215.317C104.359 215.977 101.289 216.295 98.6538 216.295L98.6794 216.307ZM68.4803 71.0867C68.3269 71.0867 68.2117 71.0867 68.1222 71.0994C66.9838 71.2644 64.6303 72.2544 63.8373 72.8382C62.7756 73.6251 60.7419 76.1888 60.2686 77.3438C60.0384 77.9276 59.4884 80.1614 59.1942 81.3544C58.9512 82.3444 58.7337 83.2201 58.5803 83.7405C57.3779 87.8781 54.9605 93.0817 52.4023 98.59C49.3197 105.228 46.1348 112.081 45.3674 116.511C44.1011 123.847 46.2883 140.346 48.3476 149.446C48.5779 150.348 50.4453 153.19 51.6221 154.422C52.3256 155.158 53.8733 156.452 54.6535 156.985C55.1779 157.341 56.1244 157.886 57.0454 158.42C58.4268 159.206 59.8593 160.031 60.8442 160.78C64.4257 163.509 65.5896 166.618 65.9222 168.738C66.1524 170.172 66.3571 173.218 66.5361 175.96L66.5745 176.467C66.7152 178.727 67.1245 182.166 67.6873 184.413C68.0454 185.885 69.7083 189.362 70.8978 191.38C71.2815 191.964 73.2001 193.855 74.1594 194.591C75.2211 195.404 76.4106 195.81 77.6641 196.254C78.5467 196.559 79.4676 196.876 80.3246 197.346C83.2025 198.919 86.3491 202.003 89.0863 204.783C90.2247 205.938 94.6887 208.299 96.6073 208.591C98.4236 208.87 102.414 208.616 103.847 208.134C106.878 207.106 108.733 204.364 110.089 202.359C110.383 201.927 110.652 201.534 110.92 201.166V67.7487C110.92 67.3299 110.869 66.9111 110.779 66.5049C110.05 63.2939 109.59 61.847 109.449 61.5424C108.899 60.3621 107.556 58.5091 107.019 58.0902C106.533 57.7222 105.075 57.0622 104.55 56.9606C103.361 56.8083 100.01 57.151 97.9503 57.5445C95.2003 58.0775 90.3398 59.131 88.1909 59.8671C87.3084 60.1717 85.0444 61.2886 84.52 61.682C84.0595 62.0628 83.113 63.6112 82.5502 64.5377C81.7316 65.8957 80.9514 67.1776 80.0048 68.1422C79.1095 69.056 76.9478 70.6044 75.1188 71.0359C73.7629 71.3532 72.1001 71.2644 70.3222 71.1629C69.7466 71.1375 68.9536 71.0867 68.4548 71.0867H68.4803Z" fill="url(#paint4_linear_1713_1969)"/>
<path d="M150.739 216.306C148.079 216.306 144.958 215.989 143.026 215.329C137.552 213.476 134.636 209.174 132.896 206.597C132.589 206.14 132.231 205.62 132.078 205.442C131.233 204.478 130.76 203.234 130.76 201.952V67.748C130.76 66.7708 130.875 65.7808 131.08 64.8289C132.205 59.9171 132.743 58.7495 132.922 58.3687C133.74 56.5919 135.787 53.4443 137.744 51.9847C138.972 51.0836 141.747 49.6875 143.768 49.421C146.57 49.0529 151.277 49.7636 152.863 50.0682C153.617 50.2079 160.32 51.5278 163.658 52.6701C164.796 53.0635 168.237 54.5992 169.682 55.7923C171.179 57.0234 172.279 58.8383 173.353 60.6025C173.84 61.4021 174.505 62.4936 174.837 62.8363C175.055 63.052 175.72 63.4836 176.065 63.6359C176.513 63.6739 177.805 63.6105 178.585 63.5597C179.953 63.4836 181.245 63.4074 182.294 63.5597C184.635 63.8897 188.204 65.3366 190.097 66.7327C192.092 68.2049 195.123 71.8475 196.211 74.5128C196.62 75.5155 197.055 77.2289 197.618 79.5388C197.835 80.4018 198.014 81.176 198.155 81.6203C199.204 85.1994 201.493 90.1619 203.936 95.3909C207.223 102.473 210.626 109.796 211.56 115.216C213.222 124.836 210.216 143.544 208.503 151.108C207.799 154.205 204.448 158.457 203.309 159.65C202.209 160.805 200.24 162.429 199.089 163.229C198.308 163.775 197.259 164.371 196.147 165.006C195.085 165.615 193.768 166.364 193.192 166.808C191.606 168.014 191.133 169.156 191.018 169.918C190.826 171.111 190.583 174.982 190.48 176.429L190.442 176.936C190.263 179.602 189.79 183.498 189.124 186.201C188.434 188.994 186.106 193.474 185.083 195.213C183.919 197.18 180.683 199.997 179.877 200.607C177.843 202.155 175.758 202.879 174.236 203.412C173.648 203.615 173.034 203.83 172.739 203.995C170.616 205.15 167.47 208.361 165.769 210.075C163.364 212.524 157.391 215.558 153.937 216.091C153.08 216.23 151.954 216.294 150.739 216.294V216.306ZM138.435 201.152C138.703 201.52 138.972 201.914 139.266 202.345C140.622 204.351 142.489 207.092 145.508 208.12C146.94 208.603 150.931 208.856 152.747 208.577C154.666 208.273 159.13 205.925 160.268 204.757C163.121 201.85 166.152 198.893 169.017 197.319C169.874 196.85 170.795 196.533 171.678 196.228C172.931 195.784 174.121 195.378 175.183 194.565C176.142 193.842 178.06 191.938 178.457 191.342C179.634 189.349 181.297 185.871 181.655 184.399C182.205 182.165 182.614 178.713 182.767 176.454L182.806 175.959C182.985 173.218 183.19 170.172 183.42 168.737C183.752 166.618 184.916 163.521 188.498 160.78C189.483 160.031 190.915 159.206 192.297 158.419C193.218 157.886 194.177 157.34 194.688 156.985C195.469 156.452 197.016 155.157 197.72 154.421C198.897 153.177 200.764 150.334 200.994 149.433C203.054 140.346 205.241 123.846 203.975 116.51C203.207 112.081 200.022 105.227 196.952 98.5893C194.394 93.081 191.977 87.8774 190.774 83.7398C190.621 83.2194 190.404 82.3437 190.161 81.341C189.866 80.148 189.316 77.9142 189.086 77.3431C188.626 76.1881 186.592 73.6244 185.517 72.8375C184.724 72.2537 182.371 71.251 181.22 71.0987C180.874 71.0606 179.749 71.1241 179.007 71.1621C177.242 71.2637 175.566 71.3525 174.21 71.0352C172.381 70.6037 170.207 69.0426 169.324 68.1288C168.391 67.1642 167.61 65.8823 166.779 64.5243C166.216 63.5978 165.282 62.0494 164.796 61.6559C164.298 61.2879 162.046 60.171 161.151 59.8664C159.002 59.1302 154.142 58.0768 151.392 57.5438C149.332 57.1503 145.981 56.8076 144.766 56.9726C144.28 57.0615 142.822 57.7341 142.323 58.0895C141.786 58.5083 140.443 60.3614 139.893 61.5417C139.752 61.8463 139.304 63.2932 138.563 66.5042C138.473 66.9104 138.422 67.3292 138.422 67.748V201.152H138.435Z" fill="url(#paint5_linear_1713_1969)"/>
<path d="M114.606 292.896C114.491 292.896 114.376 292.896 114.261 292.884C113.634 292.833 113.046 292.617 112.534 292.3C112.253 292.122 111.997 291.906 111.78 291.678C111.166 291.005 110.782 290.129 110.769 289.152V289.101C110.769 277.438 110.769 225.172 110.705 208.026C109.439 208.178 108.096 208.14 106.727 207.873C103.632 207.239 101.329 204.256 99.3085 201.616C98.6945 200.804 97.991 199.89 97.5817 199.509C96.2515 198.24 93.527 195.943 92.1329 195.055C91.0584 194.369 89.0503 193.417 87.1061 192.478C83.8572 190.93 80.8002 189.457 79.0479 188.011C76.9118 186.246 76.2595 183.67 75.9013 181.373C75.556 179.177 76.2595 177.045 76.9502 174.976C77.27 173.999 77.6025 172.996 77.7048 172.26C78.0502 169.887 78.2293 165.064 77.7816 163.261C77.1165 160.558 73.2536 152.397 71.5525 149.542C70.4397 147.676 68.7001 145.188 66.8583 142.548C63.1873 137.307 59.0303 131.354 57.3419 126.785C56.1268 123.485 55.5896 117.342 55.9093 114.042C56.4465 108.712 59.657 98.5328 61.5245 92.9484C62.2919 90.6385 64.1338 86.2725 65.5792 84.0768C67.1269 81.7288 70.6187 78.5431 73.0362 77.2739C74.9676 76.2586 78.2548 75.3828 81.7211 74.4944C82.3863 74.2025 84.113 72.2987 84.4072 71.1311C85.1107 68.2754 85.9037 65.0263 86.9398 62.1579C87.8096 59.7084 88.5514 58.0203 89.1142 57.1192C90.3166 55.2154 93.7701 51.649 94.448 50.951C95.0747 50.3164 95.8933 49.9229 96.7759 49.8214C98.2596 49.6564 103.286 49.1487 105.499 49.4026C107.277 49.6056 110.347 50.8114 111.895 52.2202C114.107 54.2382 116.064 57.7157 116.282 58.0965C116.435 58.363 116.55 58.6549 116.627 58.9469C116.627 58.9469 117.088 60.6603 117.241 61.2441C117.382 61.7898 117.83 63.6048 118.137 64.8867C118.418 66.0543 118.571 67.26 118.571 68.4658L118.418 289.089C118.418 289.812 118.213 290.485 117.868 291.056C117.599 291.5 117.254 291.868 116.845 292.16C116.371 292.503 115.821 292.744 115.22 292.833C115.016 292.871 114.798 292.884 114.581 292.884L114.606 292.896ZM108.441 200.436C109.336 200.576 110.206 200.436 110.82 200.22L110.91 68.4658C110.91 67.8693 110.833 67.2727 110.692 66.6762C110.385 65.4324 109.963 63.6809 109.823 63.1352C109.72 62.7671 109.503 61.9168 109.349 61.3837C108.697 60.2795 107.571 58.6042 106.702 57.8173C106.369 57.5634 105.103 57.0304 104.604 56.9542C103.862 56.8654 101.342 57.0177 99.0015 57.2461C97.5434 58.7819 96.034 60.4826 95.6247 61.1426C95.4073 61.4979 94.8317 62.8559 94.1666 64.6963C93.2712 67.1966 92.5166 70.2426 91.8642 72.9333C91.0201 76.3728 87.3235 80.9292 83.6398 81.8684C81.7723 82.338 77.9223 83.328 76.6304 84.0006C75.3769 84.6606 72.8188 87.0086 72.0001 88.2524C71.1048 89.6231 69.4932 93.3038 68.8025 95.3599C65.7966 104.371 63.878 111.453 63.5326 114.817C63.2896 117.266 63.814 122.267 64.5303 124.183C65.8734 127.826 69.7362 133.347 73.1385 138.22C75.0571 140.974 76.8862 143.576 78.1397 145.683C79.7514 148.387 84.2026 157.385 85.213 161.459C86.134 165.191 85.4944 171.892 85.2898 173.351C85.0851 174.748 84.6502 176.08 84.2281 177.375C83.934 178.263 83.4479 179.748 83.4735 180.243C83.7037 181.665 83.9084 182.109 84.0235 182.248C84.9828 183.023 88.0142 184.482 90.4445 185.65C92.6828 186.729 94.7933 187.731 96.2515 188.658C98.2596 189.927 101.342 192.567 102.89 194.039C103.721 194.826 104.54 195.892 105.41 197.022C106.216 198.075 107.686 199.992 108.441 200.461V200.436Z" fill="url(#paint6_linear_1713_1969)"/>
<path d="M134.597 292.884C132.474 292.884 130.76 291.183 130.76 289.076V68.4658C130.76 67.26 130.901 66.0543 131.195 64.8867C131.502 63.6048 131.95 61.7898 132.09 61.2441C132.244 60.6603 132.704 58.9469 132.704 58.9469C132.781 58.6549 132.896 58.363 133.05 58.0965C133.267 57.7031 135.237 54.2255 137.45 52.2202C138.997 50.8114 142.054 49.6056 143.832 49.4026C146.045 49.1487 151.072 49.6564 152.556 49.8214C153.438 49.9229 154.27 50.3164 154.884 50.951C155.561 51.649 159.028 55.2154 160.217 57.1192C160.934 58.2488 161.791 60.4826 162.392 62.1706C163.351 64.8486 164.08 67.7043 164.924 71.1438C165.206 72.3114 166.932 74.2152 167.687 74.5325C171.077 75.3955 174.364 76.2713 176.295 77.2866C178.713 78.5558 182.205 81.7415 183.752 84.0895C185.198 86.2852 187.04 90.6512 187.807 92.9611C189.674 98.5582 192.885 108.724 193.422 114.055C193.755 117.355 193.218 123.51 192.002 126.81C190.314 131.379 186.157 137.319 182.486 142.574C180.644 145.214 178.905 147.701 177.792 149.554C176.091 152.41 172.228 160.571 171.563 163.274C171.115 165.076 171.294 169.899 171.639 172.273C171.742 172.996 172.074 174.011 172.394 174.989C173.085 177.058 173.788 179.19 173.443 181.385C173.085 183.683 172.42 186.272 170.296 188.023C168.544 189.47 165.474 190.942 162.238 192.491C160.294 193.417 158.286 194.382 157.211 195.067C155.804 195.956 153.093 198.253 151.763 199.522C151.366 199.903 150.663 200.817 150.036 201.629C148.015 204.269 145.713 207.251 142.617 207.886C141.261 208.165 139.906 208.191 138.626 208.038C138.562 221.479 138.473 257.346 138.422 288.53C138.422 288.568 138.422 288.606 138.422 288.645L138.396 289.114C138.089 292.807 134.956 292.922 134.585 292.922L134.597 292.884ZM138.435 200.182C139.074 200.398 139.982 200.576 140.916 200.423C141.671 199.954 143.142 198.037 143.947 196.984C144.817 195.854 145.636 194.788 146.467 194.001C148.015 192.529 151.097 189.889 153.106 188.62C154.564 187.706 156.674 186.691 158.913 185.612C161.215 184.508 164.374 182.997 165.41 182.147C165.449 182.083 165.653 181.627 165.884 180.18C165.922 179.71 165.423 178.225 165.129 177.337C164.707 176.042 164.259 174.71 164.055 173.313C163.85 171.854 163.21 165.153 164.131 161.421C165.091 157.575 169.35 148.767 171.205 145.645C172.458 143.538 174.274 140.936 176.193 138.195C179.595 133.321 183.458 127.8 184.814 124.158C185.53 122.229 186.055 117.241 185.812 114.791C185.479 111.428 183.548 104.346 180.542 95.3345C179.851 93.2784 178.24 89.5977 177.344 88.227C176.526 86.9832 173.967 84.6352 172.714 83.9752C171.422 83.2899 167.559 82.3126 165.717 81.843C162.034 80.9038 158.337 76.3601 157.48 72.9079C156.687 69.6715 156.009 67.0189 155.178 64.6836C154.474 62.729 153.899 61.4218 153.72 61.1172C153.31 60.4572 151.801 58.7692 150.343 57.2208C147.989 57.005 145.482 56.8527 144.715 56.9288C144.242 57.005 142.975 57.5381 142.592 57.83C141.735 58.6169 140.596 60.343 139.995 61.3583C139.854 61.8914 139.624 62.7417 139.522 63.1098C139.381 63.6429 138.946 65.407 138.652 66.6508C138.511 67.2347 138.435 67.8312 138.435 68.4404V200.182Z" fill="url(#paint7_linear_1713_1969)"/>
<path d="M110.771 175.905C108.059 175.905 104.58 175.562 101.6 174.217C96.3431 171.843 94.0919 163.873 94.6675 160.484C94.9745 158.669 94.9873 154.798 94.6931 153.326C94.0663 150.254 90.6 143.756 88.3489 140.126C87.7093 139.098 86.7244 137.74 85.6756 136.306C82.4779 131.914 78.4999 126.457 77.8092 121.545C77.1313 116.798 79.3569 104.792 83.2453 99.5121C84.8826 97.291 87.3895 95.8315 89.6023 94.5369C90.9582 93.75 92.3524 92.925 93.0047 92.227C94.3989 90.742 96.3303 87.9117 97.0594 86.2999C97.3792 85.6018 97.6861 84.5484 98.0187 83.4442C99.042 79.992 100.308 75.7021 104.082 73.7857L104.325 73.6587C105.77 72.8845 110.183 70.5492 114.058 73.6968C116.655 75.8037 118.036 78.3293 118.177 78.6086C118.471 79.1543 118.625 79.7635 118.625 80.3854V171.818C118.625 173.696 117.256 175.283 115.389 175.575C115.005 175.638 113.189 175.892 110.797 175.892L110.771 175.905ZM109.364 79.7508C108.942 79.8524 108.226 80.2204 107.932 80.3854L107.561 80.5758C106.729 80.9946 105.847 83.9899 105.373 85.6018C104.99 86.9091 104.58 88.2671 104.056 89.4474C102.982 91.8081 100.602 95.3111 98.6326 97.4179C97.2257 98.9283 95.3326 100.032 93.5035 101.111C91.9303 102.038 90.1395 103.079 89.4361 104.03C86.9163 107.432 84.9465 117.293 85.407 120.492C85.8419 123.525 89.3337 128.348 91.8919 131.851C93.0175 133.399 94.0919 134.872 94.8722 136.128C95.128 136.534 101.037 146.091 102.214 151.803C102.751 154.43 102.675 159.227 102.24 161.753C102.188 163.022 103.608 166.741 104.785 167.274C106.55 168.074 108.98 168.289 110.937 168.264V81.4769C110.592 80.9946 110.068 80.3347 109.377 79.7381L109.364 79.7508Z" fill="url(#paint8_linear_1713_1969)"/>
<path d="M138.588 175.907C136.196 175.907 134.38 175.64 133.996 175.59C132.129 175.298 130.76 173.699 130.76 171.833V80.4005C130.76 79.7786 130.914 79.1694 131.208 78.6236C131.361 78.3444 132.743 75.8187 135.326 73.7119C139.202 70.5643 143.602 72.8996 145.06 73.6738L145.303 73.8007C149.077 75.7172 150.343 80.007 151.366 83.4592C151.699 84.5761 152.006 85.6168 152.325 86.3149C153.054 87.9268 154.986 90.7571 156.38 92.242C157.032 92.9401 158.427 93.7524 159.782 94.5519C161.995 95.8465 164.502 97.3188 166.139 99.5399C170.041 104.82 172.253 116.826 171.576 121.573C170.885 126.472 166.907 131.942 163.709 136.334C162.66 137.768 161.675 139.126 161.036 140.154C158.772 143.784 155.318 150.282 154.692 153.353C154.385 154.826 154.398 158.697 154.717 160.512C155.293 163.888 153.054 171.871 147.785 174.244C144.792 175.59 141.325 175.932 138.614 175.932L138.588 175.907ZM138.435 168.292C140.443 168.292 142.822 168.089 144.587 167.289C145.764 166.756 147.183 163.037 147.12 161.654C146.697 159.242 146.621 154.445 147.158 151.805C148.335 146.106 154.244 136.537 154.5 136.131C155.28 134.861 156.354 133.402 157.48 131.853C160.038 128.338 163.53 123.528 163.965 120.494C164.425 117.283 162.443 107.434 159.936 104.033C159.232 103.081 157.442 102.027 155.868 101.114C154.039 100.048 152.159 98.9433 150.739 97.4203C148.77 95.3134 146.39 91.8105 145.316 89.4498C144.779 88.2695 144.382 86.9114 143.999 85.6042C143.525 83.9923 142.643 81.0097 141.811 80.5782L141.44 80.3878C141.146 80.2355 140.43 79.8547 140.008 79.7532C139.317 80.3497 138.78 81.0097 138.447 81.492V168.279L138.435 168.292Z" fill="url(#paint9_linear_1713_1969)"/>
<defs>
<linearGradient id="paint0_linear_1713_1969" x1="0" y1="0" x2="243.242" y2="0" gradientUnits="userSpaceOnUse">
<stop stop-color="#FFD464"/>
<stop offset="0.322917" stop-color="#F87E88"/>
<stop offset="0.692708" stop-color="#AD8EF3"/>
<stop offset="1" stop-color="#88C7FF"/>
</linearGradient>
<linearGradient id="paint1_linear_1713_1969" x1="0" y1="0" x2="243.242" y2="0" gradientUnits="userSpaceOnUse">
<stop stop-color="#FFD464"/>
<stop offset="0.322917" stop-color="#F87E88"/>
<stop offset="0.692708" stop-color="#AD8EF3"/>
<stop offset="1" stop-color="#88C7FF"/>
</linearGradient>
<linearGradient id="paint2_linear_1713_1969" x1="0" y1="0" x2="243.242" y2="0" gradientUnits="userSpaceOnUse">
<stop stop-color="#FFD464"/>
<stop offset="0.322917" stop-color="#F87E88"/>
<stop offset="0.692708" stop-color="#AD8EF3"/>
<stop offset="1" stop-color="#88C7FF"/>
</linearGradient>
<linearGradient id="paint3_linear_1713_1969" x1="0" y1="0" x2="243.242" y2="0" gradientUnits="userSpaceOnUse">
<stop stop-color="#FFD464"/>
<stop offset="0.322917" stop-color="#F87E88"/>
<stop offset="0.692708" stop-color="#AD8EF3"/>
<stop offset="1" stop-color="#88C7FF"/>
</linearGradient>
<linearGradient id="paint4_linear_1713_1969" x1="0" y1="0" x2="243.242" y2="0" gradientUnits="userSpaceOnUse">
<stop stop-color="#FFD464"/>
<stop offset="0.322917" stop-color="#F87E88"/>
<stop offset="0.692708" stop-color="#AD8EF3"/>
<stop offset="1" stop-color="#88C7FF"/>
</linearGradient>
<linearGradient id="paint5_linear_1713_1969" x1="0" y1="0" x2="243.242" y2="0" gradientUnits="userSpaceOnUse">
<stop stop-color="#FFD464"/>
<stop offset="0.322917" stop-color="#F87E88"/>
<stop offset="0.692708" stop-color="#AD8EF3"/>
<stop offset="1" stop-color="#88C7FF"/>
</linearGradient>
<linearGradient id="paint6_linear_1713_1969" x1="0" y1="0" x2="243.242" y2="0" gradientUnits="userSpaceOnUse">
<stop stop-color="#FFD464"/>
<stop offset="0.322917" stop-color="#F87E88"/>
<stop offset="0.692708" stop-color="#AD8EF3"/>
<stop offset="1" stop-color="#88C7FF"/>
</linearGradient>
<linearGradient id="paint7_linear_1713_1969" x1="0" y1="0" x2="243.242" y2="0" gradientUnits="userSpaceOnUse">
<stop stop-color="#FFD464"/>
<stop offset="0.322917" stop-color="#F87E88"/>
<stop offset="0.692708" stop-color="#AD8EF3"/>
<stop offset="1" stop-color="#88C7FF"/>
</linearGradient>
<linearGradient id="paint8_linear_1713_1969" x1="0" y1="0" x2="243.242" y2="0" gradientUnits="userSpaceOnUse">
<stop stop-color="#FFD464"/>
<stop offset="0.322917" stop-color="#F87E88"/>
<stop offset="0.692708" stop-color="#AD8EF3"/>
<stop offset="1" stop-color="#88C7FF"/>
</linearGradient>
<linearGradient id="paint9_linear_1713_1969" x1="0" y1="0" x2="243.242" y2="0" gradientUnits="userSpaceOnUse">
<stop stop-color="#FFD464"/>
<stop offset="0.322917" stop-color="#F87E88"/>
<stop offset="0.692708" stop-color="#AD8EF3"/>
<stop offset="1" stop-color="#88C7FF"/>
</linearGradient>
</defs>
</svg>
