<?xml version='1.0' encoding='UTF-8'?>
<svg xmlns="http://www.w3.org/2000/svg" width="80" height="63" viewBox="0 0 80 63" fill="none" overflow="hidden">
  <path d="M34.3398 54.3079C34.3398 55.3535 26.6514 56.1957 17.1699 56.1957C7.68848 56.1957 0 55.3462 0 54.3079C0 53.2695 7.68848 52.42 17.1699 52.42C26.6514 52.4127 34.3398 53.2623 34.3398 54.3079Z" fill="white"/>
  <path d="M76.7633 60.4868C76.7633 61.3581 70.3435 62.0625 62.4347 62.0625C54.5184 62.0625 48.0986 61.3581 48.0986 60.4868C48.0986 59.6155 54.5184 58.9111 62.4347 58.9111C70.3511 58.9111 76.7633 59.6155 76.7633 60.4868Z" fill="white"/>
  <path d="M62.0879 0C62.1758 0.0477303 77.2343 8.23926 75.5195 15.4365C74.005 21.7927 65.7765 25.5455 62.0029 28.5176C64.2893 30.8203 66.864 32.7992 68.9404 34.1865C74.5664 37.9453 77.2795 41.9077 69.8672 46.3418C62.4688 50.7739 57.2883 56.4121 57.2686 56.4336L56.3555 55.2871C56.3555 55.2871 56.4154 55.194 56.5293 55.0234C55.5069 52.8013 53.8356 47.982 54.2822 40.8633C54.2822 40.8633 53.1085 36.1211 58.2275 28.6963C55.8664 25.7058 53.7672 21.9182 53.7354 17.876C53.6782 11.203 58.0078 4.90917 60.458 1.88379C60.0788 1.6478 59.8613 1.51562 59.8613 1.51562L62.0879 0ZM57.7666 50.373C57.904 51.3226 58.0354 52.1291 58.1475 52.7881C59.0518 51.6174 60.2591 50.1667 61.6846 48.7373L57.7666 50.373ZM27.8848 2.76465C32.3041 2.76465 35.7904 3.20439 38.3301 4.07715C39.1684 4.36734 39.9635 4.72249 40.7158 5.14062C42.9267 6.03747 44.82 7.40631 46.3896 9.25C48.1361 11.3078 49.0098 13.7417 49.0098 16.5576C49.0098 20.4121 47.6825 23.5401 45.0361 25.9355C42.3898 28.3373 38.6439 29.5351 33.7979 29.5352C32.598 29.5352 31.2978 29.4591 29.918 29.2998C28.5248 29.1533 27.0518 28.9108 25.4854 28.5986V42.3154C25.4854 45.2779 25.8321 47.1195 26.5254 47.833C26.6897 48.0167 26.8707 48.1828 27.0674 48.333C27.6556 48.4909 28.3194 48.5723 29.0586 48.5723H30.9512V48.6914L32.5713 50.6357L9.83398 49.8652V48.5723H11.6865C13.793 48.5723 15.2801 47.9222 16.1533 46.6289C16.6665 45.9089 16.9189 44.2137 16.9189 41.5381V11.1299C16.9189 8.16738 16.5857 6.32585 15.9258 5.6123C15.7487 5.4208 15.5565 5.24683 15.3486 5.09082C14.7409 4.921 14.0601 4.83497 13.3066 4.83496L9.83984 4.06445L9.86133 4.05762H9.83398V2.76465H27.8848ZM57.2119 45.9971C57.3571 47.3092 57.5047 48.4848 57.6465 49.5186L63.3477 47.1787C64.6805 46.0146 66.1445 44.943 67.6875 44.1475L57.2119 45.9971ZM56.8525 41.7559C56.8739 42.417 56.9181 43.11 56.9883 43.8379C57.0278 44.2479 57.0679 44.6476 57.1084 45.0361L70.9746 42.5703C71.3577 42.2558 71.5736 41.9177 71.6582 41.5645L56.8525 41.7559ZM57.0654 37.6289C56.9179 38.6061 56.8391 39.6696 56.8379 40.8379L71.5986 40.6152C71.4482 40.1586 71.1394 39.6937 70.7334 39.2354L57.0654 37.6289ZM58.1836 33.6855C57.7004 34.7851 57.33 36.0088 57.1006 37.4121C57.1184 37.3373 57.1348 37.2614 57.1553 37.1865C57.2085 37.0019 57.2487 36.8174 57.2754 36.6328L69.7793 38.3047C68.6026 37.2951 67.128 36.3936 66.0918 35.8096L58.1836 33.6855ZM59.9404 30.6963C59.4239 31.3916 58.9538 32.1262 58.5449 32.9258L63.8779 34.3955C62.965 33.652 61.4879 32.3699 59.9404 30.6963ZM59.0801 25.1172C59.5167 25.7198 59.9896 26.3112 60.4893 26.8877C61.8168 26.032 63.7366 24.75 65.6973 23.2803L59.0801 25.1172ZM30.2715 6.38281C29.0384 6.38281 27.4451 6.59957 25.4922 7.02637V26.1094C26.1385 26.209 26.7381 26.2925 27.292 26.3564C28.2851 26.4711 29.1252 26.5283 29.8184 26.5283C32.3444 26.5282 34.5173 25.5919 36.3369 23.7256C38.1567 21.8589 39.0703 19.4439 39.0703 16.4814C39.0703 14.4682 38.6369 12.5821 37.7637 10.8301C36.9494 9.19653 35.8219 7.94579 34.3818 7.08691C33.1256 6.61906 31.7548 6.38283 30.2715 6.38281ZM56.9346 21.2705C57.31 22.2616 57.828 23.2423 58.4482 24.2002L67.2676 21.667L67.2734 22.0498C68.1498 21.3184 68.9993 20.5045 69.7549 19.6484L56.9346 21.2705ZM56.2773 17.4258C56.2241 18.3652 56.3421 19.3108 56.6006 20.252L70.1865 18.6221L70.1758 19.1543C70.8421 18.3457 71.4153 17.5079 71.8438 16.6738L56.2773 17.4258ZM59.0879 6.39746C58.4587 7.36798 58.1521 8.20568 57.9893 8.99414L69 8.65723L69.7266 9.47266L57.8535 9.8877C57.759 10.8153 57.7756 11.7165 57.5879 12.7412L71.5674 12.2578L71.8535 13.3018L57.29 13.9033C57.1562 14.3048 56.9835 14.7291 56.7549 15.1816C56.5935 15.6041 56.4753 16.0301 56.3945 16.458L71.7871 15.3604L71.8809 16.6016C72.7594 14.8574 72.9951 13.1348 72.0928 11.7344C71.1649 9.80405 68.3582 7.40482 65.668 5.41504L59.0879 6.39746ZM62.1553 2.96973C61.1736 3.85952 60.4202 4.65277 59.8379 5.37207L64.6924 4.70605C63.7748 4.05206 62.9015 3.4601 62.1553 2.96973Z" fill="white"/>
</svg>
