<?xml version="1.0" encoding="UTF-8"?>
<svg xmlns="http://www.w3.org/2000/svg" width="110" height="89" viewBox="0 0 110 89" fill="none" preserveAspectRatio="xMidYMid meet">
  <path d="M48.8228 77.2127C48.8228 78.6993 37.8917 79.8968 24.4114 79.8968C10.9311 79.8968 0 78.689 0 77.2127C0 75.7364 10.9311 74.5286 24.4114 74.5286C37.8917 74.5182 48.8228 75.7261 48.8228 77.2127Z" fill="#D1D3D4"></path>
  <path d="M109.139 85.998C109.139 87.2368 100.012 88.2382 88.7672 88.2382C77.512 88.2382 68.3848 87.2368 68.3848 85.998C68.3848 84.7592 77.512 83.7578 88.7672 83.7578C100.022 83.7578 109.139 84.7592 109.139 85.998Z" fill="#D1D3D4"></path>
  <path d="M158.447 34.0706C158.447 36.2695 158.091 38.2103 157.367 39.9034C156.654 41.5964 155.607 43.0211 154.235 44.1876C152.863 45.3438 151.178 46.2317 149.191 46.8304C147.192 47.4395 144.848 47.7389 142.148 47.7389H138.724V60.2304C138.724 60.4369 138.659 60.6124 138.519 60.7775C138.378 60.9427 138.151 61.0666 137.838 61.1698C137.525 61.2731 137.104 61.3557 136.574 61.4073C136.045 61.4692 135.375 61.5002 134.544 61.5002C133.744 61.5002 133.075 61.4692 132.535 61.4073C131.995 61.3453 131.573 61.2627 131.249 61.1698C130.936 61.0666 130.709 60.9427 130.58 60.7775C130.472 60.6227 130.407 60.4369 130.407 60.2407V25.0375C130.407 24.0877 130.666 23.3754 131.184 22.9108C131.703 22.4359 132.383 22.1985 133.226 22.1985H142.882C143.855 22.1985 144.773 22.2398 145.648 22.3017C146.523 22.374 147.57 22.5185 148.802 22.756C150.022 22.9831 151.264 23.4167 152.517 24.0361C153.77 24.6658 154.84 25.4504 155.725 26.4105C156.611 27.3706 157.292 28.4855 157.756 29.7656C158.21 31.0457 158.447 32.4807 158.447 34.0706ZM149.741 34.6487C149.741 33.2756 149.493 32.1504 148.985 31.2625C148.478 30.3747 147.862 29.7243 147.117 29.3011C146.382 28.8778 145.604 28.6094 144.794 28.4958C143.984 28.3823 143.142 28.3307 142.278 28.3307H138.724V41.6067H142.461C143.79 41.6067 144.902 41.4312 145.799 41.0906C146.695 40.7499 147.43 40.275 148.002 39.6556C148.575 39.0362 149.007 38.3032 149.299 37.4463C149.59 36.5895 149.741 35.6604 149.741 34.6487Z" fill="url(#paint0_linear_10_48)"></path>
  <path d="M198.662 58.5477C198.662 59.0123 198.575 59.4252 198.413 59.7865C198.24 60.1478 198.013 60.4472 197.733 60.695C197.452 60.9324 197.106 61.1182 196.717 61.2215C196.328 61.335 195.929 61.3867 195.529 61.3867H191.986C191.252 61.3867 190.614 61.3144 190.074 61.1699C189.534 61.0253 189.037 60.7776 188.584 60.3956C188.13 60.024 187.687 59.5181 187.266 58.8884C186.845 58.2483 186.369 57.4328 185.84 56.421L175.654 38.1277C175.06 37.0438 174.466 35.8669 173.85 34.6074C173.235 33.3479 172.695 32.1194 172.209 30.9322H172.144C172.23 32.3879 172.295 33.8331 172.338 35.2784C172.381 36.7237 172.403 38.2103 172.403 39.7382V60.2098C172.403 60.4163 172.349 60.5918 172.23 60.7569C172.111 60.9221 171.917 61.0563 171.625 61.1699C171.344 61.2834 170.956 61.366 170.47 61.428C169.984 61.4899 169.357 61.5209 168.601 61.5209C167.866 61.5209 167.251 61.4899 166.765 61.428C166.279 61.366 165.901 61.2834 165.63 61.1699C165.36 61.0563 165.166 60.9221 165.058 60.7569C164.95 60.5918 164.896 60.4163 164.896 60.2098V25.0272C164.896 24.0774 165.188 23.3651 165.771 22.9005C166.354 22.4256 167.067 22.1882 167.91 22.1882H172.371C173.17 22.1882 173.85 22.2501 174.401 22.3844C174.952 22.5186 175.438 22.7354 175.87 23.0347C176.302 23.3341 176.713 23.7574 177.091 24.2942C177.469 24.831 177.858 25.4917 178.257 26.2763L186.229 40.5848C186.693 41.4519 187.147 42.3088 187.601 43.145C188.054 43.9812 188.486 44.8174 188.919 45.6536C189.34 46.4898 189.75 47.3157 190.15 48.1209C190.55 48.9262 190.938 49.7314 191.316 50.5366H191.349C191.284 49.1223 191.241 47.6564 191.208 46.1182C191.176 44.5903 191.165 43.1243 191.165 41.7306V23.3754C191.165 23.1793 191.23 22.9934 191.36 22.8283C191.489 22.6631 191.695 22.5289 191.997 22.405C192.289 22.2811 192.677 22.1985 193.164 22.1469C193.65 22.0953 194.276 22.0746 195.032 22.0746C195.745 22.0746 196.35 22.1056 196.836 22.1469C197.322 22.1985 197.7 22.2811 197.959 22.405C198.219 22.5289 198.402 22.6631 198.51 22.8283C198.618 22.9934 198.672 23.1689 198.672 23.3754V58.5477H198.662Z" fill="url(#paint1_linear_10_48)"></path>
  <path d="M241.133 58.3619C241.382 59.0845 241.544 59.6626 241.609 60.0859C241.673 60.5092 241.587 60.8292 241.36 61.0357C241.133 61.2525 240.712 61.3763 240.129 61.4279C239.535 61.4796 238.725 61.5002 237.688 61.5002C236.608 61.5002 235.776 61.4899 235.171 61.4589C234.566 61.4279 234.112 61.366 233.799 61.2731C233.486 61.1802 233.259 61.0563 233.129 60.8911C233 60.726 232.903 60.5195 232.816 60.2511L230.062 52.3845H214.681L212.088 60.0343C212.002 60.313 211.894 60.5505 211.753 60.7466C211.613 60.9428 211.397 61.0873 211.084 61.2008C210.781 61.3144 210.349 61.3867 209.787 61.4279C209.226 61.4692 208.491 61.4899 207.584 61.4899C206.612 61.4899 205.856 61.4589 205.305 61.397C204.754 61.335 204.376 61.1905 204.171 60.9634C203.955 60.7363 203.89 60.4059 203.944 59.9827C204.009 59.5594 204.171 58.9916 204.419 58.2896L217.046 23.5716C217.176 23.2309 217.316 22.9521 217.489 22.7457C217.662 22.5289 217.932 22.374 218.299 22.2605C218.666 22.1469 219.185 22.0746 219.833 22.0437C220.492 22.0127 221.356 22.0024 222.425 22.0024C223.667 22.0024 224.661 22.023 225.396 22.0437C226.13 22.0746 226.713 22.1469 227.124 22.2605C227.534 22.374 227.826 22.5392 228.01 22.756C228.193 22.9831 228.344 23.2825 228.463 23.6645L241.133 58.3619ZM222.339 29.6624H222.306L216.517 46.2937H228.128L222.339 29.6624Z" fill="url(#paint2_linear_10_48)"></path>
  <path d="M291.166 49.5869C291.166 50.9806 290.961 52.2401 290.561 53.3654C290.161 54.4906 289.61 55.492 288.897 56.3592C288.195 57.2264 287.342 57.9697 286.37 58.5994C285.387 59.2291 284.307 59.735 283.129 60.1376C281.952 60.5402 280.688 60.8396 279.349 61.0358C278.01 61.2319 276.519 61.3248 274.877 61.3248H263.989C263.298 61.3248 262.704 61.1287 262.229 60.7364C261.753 60.3441 261.516 59.704 261.516 58.8162V24.6969C261.516 23.8091 261.753 23.169 262.229 22.7767C262.704 22.3844 263.287 22.1883 263.989 22.1883H274.272C276.778 22.1883 278.906 22.3948 280.645 22.7974C282.384 23.2 283.853 23.8091 285.041 24.6246C286.229 25.4402 287.148 26.4726 287.785 27.7217C288.422 28.9709 288.735 30.4471 288.735 32.1402C288.735 33.0899 288.606 33.9778 288.357 34.814C288.109 35.6502 287.731 36.4141 287.245 37.0955C286.759 37.7768 286.165 38.3859 285.452 38.9124C284.75 39.4389 283.94 39.8622 283.032 40.1822C284.188 40.3887 285.257 40.7397 286.24 41.2455C287.223 41.7514 288.077 42.4018 288.8 43.1967C289.524 43.9916 290.107 44.9207 290.528 45.9944C290.95 47.0577 291.166 48.2552 291.166 49.5869ZM280.407 33.1106C280.407 32.326 280.278 31.6137 280.029 30.9943C279.781 30.3749 279.392 29.8484 278.895 29.4354C278.388 29.0225 277.75 28.7024 276.983 28.4856C276.216 28.2689 275.19 28.1553 273.894 28.1553H269.682V38.3137H274.337C275.536 38.3137 276.497 38.1794 277.221 37.911C277.934 37.6426 278.528 37.2606 279.003 36.7961C279.479 36.3212 279.835 35.7637 280.062 35.134C280.289 34.4836 280.407 33.8126 280.407 33.1106ZM282.525 49.8657C282.525 48.9572 282.363 48.152 282.049 47.4293C281.736 46.717 281.272 46.1079 280.656 45.633C280.04 45.1478 279.262 44.7762 278.312 44.5181C277.361 44.26 276.13 44.1258 274.607 44.1258H269.671V55.2546H275.687C276.843 55.2546 277.826 55.141 278.614 54.9036C279.403 54.6765 280.094 54.3255 280.667 53.8712C281.25 53.417 281.704 52.8492 282.028 52.1782C282.363 51.5071 282.525 50.7329 282.525 49.8657Z" fill="url(#paint3_linear_10_48)"></path>
  <path d="M305.942 24.1807C305.942 25.7086 305.618 26.7719 304.959 27.3604C304.3 27.9488 303.09 28.2378 301.319 28.2378C299.526 28.2378 298.316 27.9591 297.69 27.3913C297.063 26.8235 296.761 25.8118 296.761 24.3356C296.761 22.8077 297.085 21.7443 297.722 21.1456C298.37 20.5468 299.58 20.2474 301.373 20.2474C303.144 20.2474 304.343 20.5365 304.981 21.1146C305.629 21.6927 305.942 22.7148 305.942 24.1807ZM305.337 60.2924C305.337 60.4989 305.272 60.6744 305.143 60.8189C305.013 60.9738 304.797 61.0976 304.495 61.2009C304.192 61.3041 303.782 61.3764 303.274 61.428C302.766 61.4796 302.129 61.5003 301.341 61.5003C300.563 61.5003 299.915 61.4796 299.407 61.428C298.899 61.3764 298.489 61.3041 298.187 61.2009C297.884 61.0976 297.668 60.9738 297.538 60.8189C297.409 60.6641 297.344 60.4886 297.344 60.2924V33.379C297.344 33.1828 297.409 32.997 297.538 32.8525C297.668 32.6976 297.884 32.5737 298.187 32.4602C298.489 32.3466 298.899 32.264 299.407 32.2021C299.915 32.1401 300.552 32.1092 301.341 32.1092C302.118 32.1092 302.766 32.1401 303.274 32.2021C303.782 32.264 304.181 32.3466 304.495 32.4602C304.808 32.5737 305.013 32.6976 305.143 32.8525C305.272 33.0073 305.337 33.1828 305.337 33.379V60.2924Z" fill="url(#paint4_linear_10_48)"></path>
  <path d="M341.825 46.5312C341.825 48.8334 341.512 50.9291 340.874 52.8183C340.237 54.7178 339.286 56.3489 337.99 57.7219C336.705 59.095 335.085 60.148 333.151 60.9016C331.207 61.6449 328.939 62.0165 326.346 62.0165C323.84 62.0165 321.648 61.6862 319.801 61.0152C317.943 60.3544 316.409 59.384 315.178 58.1142C313.946 56.8444 313.05 55.2856 312.456 53.4273C311.861 51.5691 311.57 49.4528 311.57 47.0784C311.57 44.7762 311.894 42.6806 312.531 40.7707C313.168 38.8608 314.141 37.2297 315.426 35.867C316.711 34.5043 318.321 33.4513 320.254 32.708C322.188 31.9647 324.445 31.5931 327.048 31.5931C329.576 31.5931 331.779 31.9234 333.626 32.5738C335.484 33.2242 337.018 34.1946 338.228 35.4644C339.438 36.7342 340.345 38.293 340.939 40.1513C341.533 42.0095 341.825 44.1362 341.825 46.5312ZM333.626 46.8409C333.626 45.5092 333.518 44.291 333.292 43.1658C333.065 42.0508 332.698 41.0701 332.168 40.2442C331.639 39.4183 330.937 38.7783 330.062 38.3034C329.187 37.8388 328.085 37.6117 326.757 37.6117C325.579 37.6117 324.542 37.8182 323.657 38.2311C322.771 38.644 322.047 39.2531 321.475 40.0481C320.902 40.843 320.481 41.8031 320.189 42.918C319.909 44.0329 319.768 45.313 319.768 46.748C319.768 48.0798 319.887 49.3083 320.114 50.4232C320.341 51.5382 320.719 52.5189 321.237 53.3448C321.756 54.1706 322.458 54.8107 323.343 55.2649C324.229 55.7192 325.331 55.9463 326.638 55.9463C327.837 55.9463 328.885 55.7398 329.77 55.3269C330.656 54.9139 331.38 54.3152 331.952 53.5306C332.525 52.746 332.946 51.7962 333.216 50.671C333.497 49.5457 333.626 48.2759 333.626 46.8409Z" fill="url(#paint5_linear_10_48)"></path>
  <path d="M156.287 32.006C156.287 34.2049 155.93 36.1457 155.207 37.8388C154.494 39.5318 153.446 40.9565 152.074 42.123C150.702 43.2793 149.017 44.1671 147.03 44.7659C145.032 45.3749 142.688 45.6743 139.987 45.6743H136.563V58.1658C136.563 58.3723 136.498 58.5478 136.358 58.713C136.218 58.8781 135.991 59.002 135.678 59.1052C135.364 59.2085 134.943 59.2911 134.414 59.3427C133.884 59.4046 133.215 59.4356 132.394 59.4356C131.595 59.4356 130.925 59.4046 130.385 59.3427C129.845 59.2808 129.423 59.1982 129.099 59.1052C128.786 59.002 128.559 58.8781 128.43 58.713C128.311 58.5581 128.246 58.3723 128.246 58.1761V22.9729C128.246 22.0231 128.505 21.3108 129.024 20.8462C129.542 20.3713 130.223 20.1339 131.065 20.1339H140.722C141.694 20.1339 142.612 20.1752 143.487 20.2371C144.362 20.3094 145.41 20.4539 146.641 20.6914C147.862 20.9185 149.104 21.3521 150.357 21.9715C151.61 22.6012 152.679 23.3858 153.565 24.3459C154.451 25.306 155.131 26.4209 155.596 27.7011C156.049 28.9812 156.287 30.4162 156.287 32.006ZM147.581 32.5841C147.581 31.2111 147.332 30.0858 146.825 29.198C146.317 28.3102 145.701 27.6598 144.956 27.2365C144.222 26.8132 143.444 26.5448 142.634 26.4313C141.824 26.3177 140.981 26.2661 140.117 26.2661H136.563V39.5422H140.301C141.629 39.5422 142.742 39.3667 143.638 39.026C144.535 38.6853 145.269 38.2104 145.842 37.591C146.414 36.9716 146.846 36.2386 147.138 35.3818C147.43 34.5249 147.581 33.5958 147.581 32.5841Z" fill="url(#paint6_linear_10_48)"></path>
  <path d="M196.501 56.4831C196.501 56.9476 196.414 57.3606 196.252 57.7219C196.08 58.0832 195.853 58.3826 195.572 58.6304C195.291 58.8678 194.945 59.0536 194.557 59.1568C194.168 59.2704 193.768 59.322 193.368 59.322H189.826C189.091 59.322 188.454 59.2498 187.914 59.1052C187.374 58.9607 186.877 58.7129 186.423 58.331C185.969 57.9593 185.527 57.4535 185.105 56.8237C184.684 56.1837 184.209 55.3681 183.679 54.3564L173.494 36.0631C172.9 34.9791 172.305 33.8023 171.69 32.5428C171.074 31.2833 170.534 30.0548 170.048 28.8676H169.983C170.07 30.3232 170.134 31.7685 170.178 33.2138C170.221 34.6591 170.242 36.1457 170.242 37.6736V58.1451C170.242 58.3516 170.188 58.5271 170.07 58.6923C169.951 58.8575 169.756 58.9917 169.465 59.1052C169.184 59.2188 168.795 59.3014 168.309 59.3633C167.823 59.4253 167.196 59.4562 166.44 59.4562C165.706 59.4562 165.09 59.4253 164.604 59.3633C164.118 59.3014 163.74 59.2188 163.47 59.1052C163.2 58.9917 163.005 58.8575 162.897 58.6923C162.789 58.5271 162.735 58.3516 162.735 58.1451V22.9625C162.735 22.0128 163.027 21.3005 163.61 20.8359C164.194 20.361 164.906 20.1236 165.749 20.1236H170.21C171.009 20.1236 171.69 20.1855 172.241 20.3197C172.792 20.4539 173.278 20.6707 173.71 20.9701C174.142 21.2695 174.552 21.6927 174.93 22.2296C175.308 22.7664 175.697 23.4271 176.097 24.2117L184.068 38.5201C184.533 39.3873 184.986 40.2441 185.44 41.0803C185.894 41.9166 186.326 42.7528 186.758 43.589C187.179 44.4252 187.59 45.251 187.989 46.0563C188.389 46.8615 188.778 47.6668 189.156 48.472H189.188C189.123 47.0577 189.08 45.5917 189.048 44.0535C189.015 42.5256 189.005 41.0597 189.005 39.666V21.3108C189.005 21.1146 189.069 20.9288 189.199 20.7636C189.329 20.5985 189.534 20.4642 189.836 20.3404C190.128 20.2165 190.517 20.1339 191.003 20.0823C191.489 20.0307 192.115 20.01 192.872 20.01C193.584 20.01 194.189 20.041 194.675 20.0823C195.161 20.1339 195.54 20.2165 195.799 20.3404C196.058 20.4642 196.242 20.5985 196.35 20.7636C196.458 20.9288 196.512 21.1043 196.512 21.3108V56.4831H196.501Z" fill="url(#paint7_linear_10_48)"></path>
  <path d="M238.973 56.2972C239.222 57.0199 239.384 57.598 239.449 58.0213C239.513 58.4445 239.427 58.7646 239.2 58.971C238.973 59.1878 238.552 59.3117 237.969 59.3633C237.375 59.4149 236.565 59.4356 235.528 59.4356C234.447 59.4356 233.616 59.4253 233.011 59.3943C232.406 59.3633 231.952 59.3014 231.639 59.2085C231.326 59.1156 231.099 58.9917 230.969 58.8265C230.84 58.6613 230.742 58.4548 230.656 58.1864L227.902 50.3199H212.52L209.928 57.9696C209.842 58.2484 209.734 58.4858 209.593 58.682C209.453 58.8781 209.237 59.0226 208.923 59.1362C208.621 59.2498 208.189 59.322 207.627 59.3633C207.066 59.4046 206.331 59.4253 205.424 59.4253C204.452 59.4253 203.696 59.3943 203.145 59.3323C202.594 59.2704 202.216 59.1259 202.011 58.8988C201.794 58.6716 201.73 58.3413 201.784 57.918C201.848 57.4948 202.01 56.927 202.259 56.225L214.886 21.5069C215.016 21.1662 215.156 20.8875 215.329 20.681C215.502 20.4642 215.772 20.3094 216.139 20.1958C216.506 20.0823 217.025 20.01 217.673 19.979C218.332 19.9481 219.196 19.9377 220.265 19.9377C221.507 19.9377 222.501 19.9584 223.235 19.979C223.97 20.01 224.553 20.0823 224.964 20.1958C225.374 20.3094 225.666 20.4746 225.849 20.6914C226.033 20.9185 226.184 21.2179 226.303 21.5998L238.973 56.2972ZM220.179 27.5978H220.146L214.357 44.229H225.968L220.179 27.5978Z" fill="url(#paint8_linear_10_48)"></path>
  <path d="M289.006 47.5223C289.006 48.9159 288.8 50.1754 288.401 51.3007C288.001 52.4259 287.45 53.4273 286.737 54.2945C286.035 55.1617 285.182 55.905 284.21 56.5347C283.227 57.1644 282.147 57.6703 280.969 58.0729C279.792 58.4755 278.528 58.7749 277.189 58.9711C275.849 59.1672 274.359 59.2601 272.717 59.2601H261.829C261.138 59.2601 260.544 59.064 260.068 58.6717C259.593 58.2794 259.355 57.6393 259.355 56.7515V22.6322C259.355 21.7444 259.593 21.1043 260.068 20.712C260.544 20.3197 261.127 20.1236 261.829 20.1236H272.112C274.618 20.1236 276.746 20.3301 278.485 20.7327C280.224 21.1353 281.693 21.7444 282.881 22.56C284.069 23.3755 284.987 24.4079 285.625 25.657C286.262 26.9062 286.575 28.3824 286.575 30.0755C286.575 31.0252 286.446 31.9131 286.197 32.7493C285.949 33.5855 285.571 34.3494 285.085 35.0308C284.599 35.7121 284.004 36.3212 283.292 36.8477C282.589 37.3742 281.779 37.7975 280.872 38.1175C282.028 38.324 283.097 38.675 284.08 39.1808C285.063 39.6867 285.916 40.3371 286.64 41.132C287.364 41.9269 287.947 42.856 288.368 43.9297C288.79 44.993 289.006 46.1905 289.006 47.5223ZM278.247 31.0459C278.247 30.2613 278.118 29.549 277.869 28.9296C277.621 28.3102 277.232 27.7837 276.735 27.3707C276.227 26.9578 275.59 26.6377 274.823 26.421C274.056 26.2042 273.03 26.0906 271.734 26.0906H267.521V36.249H272.177C273.376 36.249 274.337 36.1147 275.061 35.8463C275.774 35.5779 276.368 35.196 276.843 34.7314C277.318 34.2565 277.675 33.699 277.902 33.0693C278.128 32.4189 278.247 31.7479 278.247 31.0459ZM280.364 47.801C280.364 46.8925 280.202 46.0873 279.889 45.3646C279.576 44.6523 279.111 44.0432 278.496 43.5684C277.88 43.0831 277.102 42.7115 276.152 42.4534C275.201 42.1953 273.97 42.0611 272.447 42.0611H267.511V53.1899H273.527C274.683 53.1899 275.666 53.0763 276.454 52.8389C277.243 52.6118 277.934 52.2608 278.507 51.8065C279.09 51.3523 279.543 50.7845 279.868 50.1135C280.202 49.4424 280.364 48.6682 280.364 47.801Z" fill="url(#paint9_linear_10_48)"></path>
  <path d="M303.782 22.116C303.782 23.6439 303.458 24.7072 302.799 25.2957C302.14 25.8841 300.93 26.1732 299.159 26.1732C297.366 26.1732 296.156 25.8944 295.53 25.3266C294.903 24.7588 294.601 23.7471 294.601 22.2709C294.601 20.743 294.925 19.6796 295.562 19.0809C296.21 18.4821 297.42 18.1827 299.213 18.1827C300.984 18.1827 302.183 18.4718 302.821 19.0499C303.469 19.628 303.782 20.6501 303.782 22.116ZM303.177 58.2277C303.177 58.4342 303.112 58.6097 302.983 58.7542C302.853 58.9091 302.637 59.0329 302.334 59.1362C302.032 59.2394 301.622 59.3117 301.114 59.3633C300.606 59.4149 299.969 59.4356 299.18 59.4356C298.403 59.4356 297.755 59.4149 297.247 59.3633C296.739 59.3117 296.329 59.2394 296.026 59.1362C295.724 59.0329 295.508 58.9091 295.378 58.7542C295.249 58.5994 295.184 58.4239 295.184 58.2277V31.3143C295.184 31.1181 295.249 30.9323 295.378 30.7878C295.508 30.6329 295.724 30.509 296.026 30.3955C296.329 30.2819 296.739 30.1993 297.247 30.1374C297.755 30.0754 298.392 30.0445 299.18 30.0445C299.958 30.0445 300.606 30.0754 301.114 30.1374C301.622 30.1993 302.021 30.2819 302.334 30.3955C302.648 30.509 302.853 30.6329 302.983 30.7878C303.112 30.9426 303.177 31.1181 303.177 31.3143V58.2277Z" fill="url(#paint10_linear_10_48)"></path>
  <path d="M339.664 44.4664C339.664 46.7686 339.351 48.8642 338.714 50.7534C338.076 52.653 337.126 54.2841 335.83 55.6571C334.544 57.0302 332.924 58.0832 330.991 58.8368C329.046 59.5801 326.778 59.9517 324.186 59.9517C321.68 59.9517 319.487 59.6214 317.64 58.9503C315.782 58.2896 314.248 57.3192 313.017 56.0494C311.786 54.7796 310.889 53.2208 310.295 51.3625C309.701 49.5043 309.409 47.388 309.409 45.0136C309.409 42.7114 309.733 40.6157 310.371 38.7059C311.008 36.796 311.98 35.1649 313.265 33.8022C314.551 32.4395 316.16 31.3865 318.094 30.6432C320.027 29.8999 322.285 29.5283 324.888 29.5283C327.415 29.5283 329.619 29.8586 331.466 30.509C333.324 31.1594 334.858 32.1298 336.067 33.3996C337.277 34.6694 338.184 36.2282 338.778 38.0865C339.373 39.9447 339.664 42.0714 339.664 44.4664ZM331.466 44.7761C331.466 43.4444 331.358 42.2262 331.131 41.1009C330.904 39.986 330.537 39.0053 330.008 38.1794C329.478 37.3535 328.776 36.7134 327.901 36.2386C327.026 35.774 325.925 35.5469 324.596 35.5469C323.419 35.5469 322.382 35.7533 321.496 36.1663C320.61 36.5792 319.887 37.1883 319.314 37.9832C318.742 38.7781 318.32 39.7382 318.029 40.8532C317.748 41.9681 317.608 43.2482 317.608 44.6832C317.608 46.0149 317.726 47.2435 317.953 48.3584C318.18 49.4733 318.558 50.4541 319.077 51.2799C319.595 52.1058 320.297 52.7459 321.183 53.2001C322.069 53.6544 323.17 53.8815 324.477 53.8815C325.676 53.8815 326.724 53.675 327.61 53.2621C328.495 52.8491 329.219 52.2504 329.792 51.4658C330.364 50.6812 330.785 49.7314 331.055 48.6061C331.336 47.4809 331.466 46.2111 331.466 44.7761Z" fill="url(#paint11_linear_10_48)"></path>
  <path d="M36.2338 40.6612V60.163C36.2338 64.375 36.7266 66.9927 37.7122 68.0072C38.9917 69.4384 40.963 70.1539 43.6166 70.1539L43.863 69.0579L46.3082 71.9927L13.981 70.8967L16.284 70.1539H18.9187C21.9135 70.1539 24.0269 69.23 25.2685 67.3913C25.9982 66.3677 26.3584 63.9583 26.3584 60.1539V16.9293C26.3584 12.7174 25.8845 10.0996 24.9462 9.08511C23.5815 7.60866 21.5628 6.87496 18.9187 6.87496L13.9904 5.77895L16.2934 5.03619H41.9581C48.2416 5.03619 53.1982 5.66119 56.8091 6.90214C60.42 8.15214 63.4717 10.2355 65.9547 13.1521C68.4378 16.0779 69.6793 19.538 69.6793 23.5416C69.6793 29.0217 67.7933 33.4692 64.0308 36.875C60.2683 40.2898 54.9421 41.9927 48.052 41.9927C46.3461 41.9927 44.498 41.884 42.5362 41.6576C40.5554 41.4492 38.4609 41.105 36.2338 40.6612ZM36.2338 37.8351C38.0724 38.1612 39.7025 38.4058 41.1051 38.5688C42.5173 38.7318 43.7114 38.8134 44.697 38.8134C48.289 38.8134 51.3786 37.4818 53.9659 34.8279C56.5532 32.1739 57.8516 28.7409 57.8516 24.5289C57.8516 21.6666 57.2356 18.9945 55.994 16.4945C54.7525 14.0036 52.9992 12.1376 50.7341 10.9148C48.469 9.69199 45.9007 9.07605 43.0385 9.07605C41.2852 9.07605 39.0201 9.38402 36.2432 9.9909V37.8351H36.2338Z" fill="url(#paint12_linear_10_48)"></path>
  <path d="M33.9308 39.5561V59.058C33.9308 63.2699 34.4236 65.8877 35.4092 66.9112C36.6887 68.3424 38.66 69.0579 41.3136 69.0579H44.0052V70.8967H13.981V69.0579H16.6157C19.6105 69.0579 21.7239 68.134 22.9655 66.2953C23.6952 65.2717 24.0554 62.8623 24.0554 59.058V15.8243C24.0554 11.6123 23.5815 8.99456 22.6433 7.98006C21.2785 6.50362 19.2693 5.76992 16.6157 5.76992H13.981V3.93115H39.6456C45.9291 3.93115 50.8857 4.55615 54.4966 5.79709C58.1075 7.04709 61.1592 9.13043 63.6423 12.0562C66.1253 14.9819 67.3669 18.442 67.3669 22.4456C67.3669 27.9257 65.4809 32.3732 61.7184 35.779C57.9558 39.1938 52.6296 40.8967 45.7395 40.8967C44.0241 40.8967 42.1855 40.779 40.2237 40.5616C38.2524 40.3442 36.158 40.009 33.9308 39.5561ZM33.9308 36.7391C35.7694 37.0652 37.39 37.3098 38.8021 37.4728C40.2143 37.6359 41.4084 37.7174 42.394 37.7174C45.986 37.7174 49.0756 36.3859 51.6629 33.7319C54.2502 31.0779 55.5486 27.6449 55.5486 23.433C55.5486 20.5706 54.9326 17.8895 53.691 15.3985C52.4495 12.9076 50.6962 11.0417 48.4311 9.81883C46.166 8.59601 43.5977 7.98006 40.7355 7.98006C38.9822 7.98006 36.7171 8.28804 33.9308 8.89492V36.7391Z" fill="url(#paint13_linear_10_48)"></path>
  <path d="M82.8531 7.94382C82.7394 8.40577 82.6067 8.86773 82.4551 9.32968L93.4393 7.69019L92.6906 6.59418L82.8531 7.94382Z" fill="url(#paint14_linear_10_48)"></path>
  <path d="M80.7295 14.1124L99.1345 13.4692L98.1015 12.3098L81.2318 12.8261C81.0612 13.2518 80.8906 13.6776 80.7295 14.1124Z" fill="url(#paint15_linear_10_48)"></path>
  <path d="M78.7207 19.8821L102.158 18.9129L101.751 17.4274L79.2325 18.2064C79.0429 18.768 78.8723 19.3205 78.7207 19.8821Z" fill="url(#paint16_linear_10_48)"></path>
  <path d="M78.0195 24.8732L102.206 23.7047L102.064 21.8387L78.0574 23.5507C78.0195 23.9945 78.0101 24.4384 78.0195 24.8732Z" fill="url(#paint17_linear_10_48)"></path>
  <path d="M78.6543 29.0127C78.7965 29.5019 78.9576 29.991 79.1471 30.4711L99.7603 27.8624L99.7888 26.4765L78.6543 29.0127Z" fill="url(#paint18_linear_10_48)"></path>
  <path d="M82.3225 36.1775L95.6666 32.4728L95.6382 30.8061L81.6401 34.8278C81.9055 35.2626 82.1519 35.7065 82.3225 36.1775Z" fill="url(#paint19_linear_10_48)"></path>
  <path d="M81.9148 46.4493C81.9148 46.4946 81.9243 46.5399 81.9148 46.5852C81.8485 46.9384 81.8011 47.2917 81.7632 47.6359L94.0079 50.9239L94.1406 49.8188L81.9148 46.4493Z" fill="url(#paint20_linear_10_48)"></path>
  <path d="M81.2605 52.8714C81.2037 53.0797 81.1563 53.288 81.1089 53.4964L101.296 55.8695L100.395 54.6195L81.4311 52.0833C81.3932 52.346 81.3363 52.6087 81.2605 52.8714Z" fill="url(#paint21_linear_10_48)"></path>
  <path d="M80.2841 58.8224C80.2652 59.0036 80.2462 59.1848 80.2178 59.375L102.66 59.0851L102.461 57.7355L80.3505 58.0706C80.341 58.3152 80.3125 58.5598 80.2841 58.8224Z" fill="url(#paint22_linear_10_48)"></path>
  <path d="M79.6203 64.3115C79.6014 64.7825 79.6108 65.2445 79.6487 65.6974L102.063 61.7391L102.338 60.2717L79.6203 64.3115Z" fill="url(#paint23_linear_10_48)"></path>
  <path d="M80.6064 70.9601C80.6823 71.3586 80.7581 71.7572 80.8244 72.1648L94.8604 66.3043L95.5238 64.8369L80.6064 70.9601Z" fill="url(#paint24_linear_10_48)"></path>
  <path d="M90.5006 2.3914C78.3506 12.3552 84.3024 14.4385 80.6915 21.5852C76.8058 31.7573 90.0172 43.261 98.0161 48.6052C106.015 53.9494 109.872 59.5834 99.3334 65.8878C88.7946 72.2012 81.4213 80.2356 81.4213 80.2356L80.1229 78.6052C80.1229 78.6052 88.5767 65.3081 98.689 61.6939C108.792 58.0707 92.1401 49.9367 92.1401 49.9367C92.1401 49.9367 76.5025 38.6323 76.3983 25.4168C76.2845 12.1921 88.2829 0.00915527 88.2829 0.00915527L90.5006 2.3914Z" fill="url(#paint25_linear_10_48)"></path>
  <path d="M88.2739 0C88.2739 0 109.816 11.6848 107.371 21.9475C104.926 32.2101 90.1693 37.6993 86.3594 42.2101C82.5495 46.721 80.038 52.1105 81.0237 62.3279C82.0093 72.5453 83.2414 78.1069 83.2414 78.1069L81.4217 80.2264C81.4217 80.2264 76.2755 72.4456 77.1759 58.0978C77.1759 58.0978 75.4036 50.933 83.4878 39.8098C83.4878 39.8098 89.1932 36.3859 94.6711 32.1377C100.149 27.8986 105.371 21.1413 102.499 16.6848C99.7225 10.9058 85.1084 2.1558 85.1084 2.1558L88.2739 0Z" fill="url(#paint26_linear_10_48)"></path>
  <defs>
    <linearGradient id="paint0_linear_10_48" x1="144.425" y1="23.3911" x2="144.425" y2="54.7689" gradientUnits="userSpaceOnUse">
      <stop offset="0.00537634"></stop>
      <stop offset="1" stop-color="#939598"></stop>
    </linearGradient>
    <linearGradient id="paint1_linear_10_48" x1="181.782" y1="23.3911" x2="181.782" y2="54.769" gradientUnits="userSpaceOnUse">
      <stop offset="0.00537634"></stop>
      <stop offset="1" stop-color="#939598"></stop>
    </linearGradient>
    <linearGradient id="paint2_linear_10_48" x1="222.779" y1="23.391" x2="222.779" y2="54.7691" gradientUnits="userSpaceOnUse">
      <stop offset="0.00537634"></stop>
      <stop offset="1" stop-color="#939598"></stop>
    </linearGradient>
    <linearGradient id="paint3_linear_10_48" x1="276.339" y1="23.3912" x2="276.339" y2="54.7691" gradientUnits="userSpaceOnUse">
      <stop offset="0.00537634"></stop>
      <stop offset="1" stop-color="#939598"></stop>
    </linearGradient>
    <linearGradient id="paint4_linear_10_48" x1="301.354" y1="23.3912" x2="301.354" y2="54.769" gradientUnits="userSpaceOnUse">
      <stop offset="0.00537634"></stop>
      <stop offset="1" stop-color="#939598"></stop>
    </linearGradient>
    <linearGradient id="paint5_linear_10_48" x1="326.702" y1="23.3912" x2="326.702" y2="54.7692" gradientUnits="userSpaceOnUse">
      <stop offset="0.00537634"></stop>
      <stop offset="1" stop-color="#939598"></stop>
    </linearGradient>
    <linearGradient id="paint6_linear_10_48" x1="142.265" y1="57.538" x2="142.265" y2="-1.13773" gradientUnits="userSpaceOnUse">
      <stop offset="0.00537634"></stop>
      <stop offset="1" stop-color="#939598"></stop>
    </linearGradient>
    <linearGradient id="paint7_linear_10_48" x1="179.622" y1="57.538" x2="179.622" y2="-1.13765" gradientUnits="userSpaceOnUse">
      <stop offset="0.00537634"></stop>
      <stop offset="1" stop-color="#939598"></stop>
    </linearGradient>
    <linearGradient id="paint8_linear_10_48" x1="220.618" y1="57.538" x2="220.618" y2="-1.13765" gradientUnits="userSpaceOnUse">
      <stop offset="0.00537634"></stop>
      <stop offset="1" stop-color="#939598"></stop>
    </linearGradient>
    <linearGradient id="paint9_linear_10_48" x1="274.178" y1="57.5379" x2="274.178" y2="-1.13773" gradientUnits="userSpaceOnUse">
      <stop offset="0.00537634"></stop>
      <stop offset="1" stop-color="#939598"></stop>
    </linearGradient>
    <linearGradient id="paint10_linear_10_48" x1="299.193" y1="57.538" x2="299.193" y2="-1.13744" gradientUnits="userSpaceOnUse">
      <stop offset="0.00537634"></stop>
      <stop offset="1" stop-color="#939598"></stop>
    </linearGradient>
    <linearGradient id="paint11_linear_10_48" x1="324.541" y1="57.5379" x2="324.541" y2="-1.13738" gradientUnits="userSpaceOnUse">
      <stop offset="0.00537634"></stop>
      <stop offset="1" stop-color="#939598"></stop>
    </linearGradient>
    <linearGradient id="paint12_linear_10_48" x1="57.6141" y1="3.80078" x2="12.1863" y2="67.3134" gradientUnits="userSpaceOnUse">
      <stop offset="0.00537634" stop-color="#262262"></stop>
      <stop offset="0.2688" stop-color="#00AEEF"></stop>
      <stop offset="0.5269" stop-color="#262262"></stop>
      <stop offset="0.7688" stop-color="#00AEEF"></stop>
      <stop offset="1" stop-color="#262262"></stop>
    </linearGradient>
    <linearGradient id="paint13_linear_10_48" x1="17.4271" y1="3.0817" x2="51.7264" y2="69.9628" gradientUnits="userSpaceOnUse">
      <stop offset="0.00537634" stop-color="#160D47"></stop>
      <stop offset="0.2688" stop-color="#1C75BC"></stop>
      <stop offset="0.5269" stop-color="#160D47"></stop>
      <stop offset="0.7688" stop-color="#1C75BC"></stop>
      <stop offset="1" stop-color="#160D47"></stop>
    </linearGradient>
    <linearGradient id="paint14_linear_10_48" x1="84.8536" y1="12.4531" x2="89.8463" y2="4.75452" gradientUnits="userSpaceOnUse">
      <stop stop-color="#00AEEF"></stop>
      <stop offset="0.3656" stop-color="#262262"></stop>
      <stop offset="0.7688" stop-color="#00AEEF"></stop>
      <stop offset="1" stop-color="#262262"></stop>
    </linearGradient>
    <linearGradient id="paint15_linear_10_48" x1="85.1497" y1="20.2216" x2="92.5969" y2="8.73835" gradientUnits="userSpaceOnUse">
      <stop stop-color="#00AEEF"></stop>
      <stop offset="0.3656" stop-color="#262262"></stop>
      <stop offset="0.7688" stop-color="#00AEEF"></stop>
      <stop offset="1" stop-color="#262262"></stop>
    </linearGradient>
    <linearGradient id="paint16_linear_10_48" x1="84.3071" y1="27.5588" x2="94.0983" y2="12.4612" gradientUnits="userSpaceOnUse">
      <stop stop-color="#00AEEF"></stop>
      <stop offset="0.3656" stop-color="#262262"></stop>
      <stop offset="0.7688" stop-color="#00AEEF"></stop>
      <stop offset="1" stop-color="#262262"></stop>
    </linearGradient>
    <linearGradient id="paint17_linear_10_48" x1="83.5663" y1="32.8817" x2="94.0819" y2="16.667" gradientUnits="userSpaceOnUse">
      <stop stop-color="#00AEEF"></stop>
      <stop offset="0.3656" stop-color="#262262"></stop>
      <stop offset="0.7688" stop-color="#00AEEF"></stop>
      <stop offset="1" stop-color="#262262"></stop>
    </linearGradient>
    <linearGradient id="paint18_linear_10_48" x1="83.135" y1="37.0021" x2="92.8701" y2="21.9909" gradientUnits="userSpaceOnUse">
      <stop stop-color="#00AEEF"></stop>
      <stop offset="0.3656" stop-color="#262262"></stop>
      <stop offset="0.7688" stop-color="#00AEEF"></stop>
      <stop offset="1" stop-color="#262262"></stop>
    </linearGradient>
    <linearGradient id="paint19_linear_10_48" x1="83.9768" y1="40.2361" x2="91.7308" y2="28.2797" gradientUnits="userSpaceOnUse">
      <stop stop-color="#00AEEF"></stop>
      <stop offset="0.3656" stop-color="#262262"></stop>
      <stop offset="0.7688" stop-color="#00AEEF"></stop>
      <stop offset="1" stop-color="#262262"></stop>
    </linearGradient>
    <linearGradient id="paint20_linear_10_48" x1="86.0674" y1="51.3681" x2="89.1621" y2="46.5962" gradientUnits="userSpaceOnUse">
      <stop stop-color="#00AEEF"></stop>
      <stop offset="0.3656" stop-color="#262262"></stop>
      <stop offset="0.7688" stop-color="#00AEEF"></stop>
      <stop offset="1" stop-color="#262262"></stop>
    </linearGradient>
    <linearGradient id="paint21_linear_10_48" x1="86.9552" y1="60.1946" x2="93.4819" y2="50.1307" gradientUnits="userSpaceOnUse">
      <stop stop-color="#00AEEF"></stop>
      <stop offset="0.3656" stop-color="#262262"></stop>
      <stop offset="0.7688" stop-color="#00AEEF"></stop>
      <stop offset="1" stop-color="#262262"></stop>
    </linearGradient>
    <linearGradient id="paint22_linear_10_48" x1="85.3697" y1="67.2339" x2="94.77" y2="52.7389" gradientUnits="userSpaceOnUse">
      <stop stop-color="#00AEEF"></stop>
      <stop offset="0.3656" stop-color="#262262"></stop>
      <stop offset="0.7688" stop-color="#00AEEF"></stop>
      <stop offset="1" stop-color="#262262"></stop>
    </linearGradient>
    <linearGradient id="paint23_linear_10_48" x1="83.9494" y1="72.7296" x2="95.08" y2="55.5666" gradientUnits="userSpaceOnUse">
      <stop stop-color="#00AEEF"></stop>
      <stop offset="0.3656" stop-color="#262262"></stop>
      <stop offset="0.7688" stop-color="#00AEEF"></stop>
      <stop offset="1" stop-color="#262262"></stop>
    </linearGradient>
    <linearGradient id="paint24_linear_10_48" x1="82.2603" y1="76.339" x2="91.4389" y2="62.186" gradientUnits="userSpaceOnUse">
      <stop stop-color="#00AEEF"></stop>
      <stop offset="0.3656" stop-color="#262262"></stop>
      <stop offset="0.7688" stop-color="#00AEEF"></stop>
      <stop offset="1" stop-color="#262262"></stop>
    </linearGradient>
    <linearGradient id="paint25_linear_10_48" x1="66.7781" y1="23.5565" x2="104.809" y2="61.7158" gradientUnits="userSpaceOnUse">
      <stop offset="0.00537634" stop-color="#160D47"></stop>
      <stop offset="0.2688" stop-color="#1C75BC"></stop>
      <stop offset="0.5269" stop-color="#160D47"></stop>
      <stop offset="0.7688" stop-color="#1C75BC"></stop>
      <stop offset="1" stop-color="#160D47"></stop>
    </linearGradient>
    <linearGradient id="paint26_linear_10_48" x1="63.8086" y1="68.8078" x2="102.544" y2="9.07978" gradientUnits="userSpaceOnUse">
      <stop offset="0.00537634" stop-color="#160D47"></stop>
      <stop offset="0.2688" stop-color="#1C75BC"></stop>
      <stop offset="0.5269" stop-color="#160D47"></stop>
      <stop offset="0.7688" stop-color="#1C75BC"></stop>
      <stop offset="1" stop-color="#160D47"></stop>
    </linearGradient>
  </defs>
</svg>
